# xmcd CD database file
#
# Track frame offsets:
#	150
#	12270
#	26600
#	40220
#	53870
#	69290
#	81445
#	93990
#	104790
#	120920
#	133030
#	145445
#	156265
#	169235
#	179555
#	190485
#	203310
#	217885
#	231650
#	244725
#	254385
#	269620
#	282090
#
# Disc length: 3958 seconds
#
# Revision: 0
# Processed by: cddbd v1.5.1PL0 Copyright (c) Steve Scherf et al.
# Submitted via: CDex 1.51
#
DISCID=560f7417
DTITLE=Johnny Hartman and Oliver Nelson - I Love Everybody
DYEAR=1966
DGENRE=Jazz
TTITLE0=Today I love everybody
TTITLE1=T'ain't no need
TTITLE2=For the want of a kiss
TTITLE3=Girl talk
TTITLE4=Old black magic - Matilde
TTITLE5=If I had you
TTITLE6=When I get the time
TTITLE7=Goodbye, goodbye
TTITLE8=I cover the waterfront
TTITLE9=Go away
TTITLE10=As you desire me
TTITLE11=Mam'selle
TTITLE12=To each his own
TTITLE13=Sunday
TTITLE14=Alone
TTITLE15=Long ago and far away
TTITLE16=I should care
TTITLE17=Little girl blue
TTITLE18=But beautiful
TTITLE19=After you've gone
TTITLE20=There's a Lull in my life
TTITLE21=How long has this been going on
TTITLE22=I thought about you
EXTD=YEAR: 1966
EXTT0=
EXTT1=
EXTT2=
EXTT3=
EXTT4=
EXTT5=
EXTT6=
EXTT7=
EXTT8=
EXTT9=
EXTT10=
EXTT11=
EXTT12=
EXTT13=
EXTT14=
EXTT15=
EXTT16=
EXTT17=
EXTT18=
EXTT19=
EXTT20=
EXTT21=
EXTT22=
PLAYORDER=
